# xmcd
#
# Track frame offsets:
#	150
#	24622
#	47162
#	68900
#	92502
#	114157
#	138492
#	155312
#	193977
#	206017
#	221232
#	236615
#	250337
#
# Disc length: 3642 seconds
#
# Revision: 0
# Processed by: cddbd v1.4PL0 Copyright (c) Steve Scherf et al.
# Submitted via: dBpowerAMP V4.0
#
DISCID=bd0e380d
DTITLE=Compilation - Yes, Blues
DYEAR=1994
DGENRE=Blues
TTITLE0=Muddy Waters - Mannish Boy
TTITLE1=Jeff Beck Group - Tonight I'll be Staying Here With You
TTITLE2=Willie Dixon - I'm Your Hoochie Coochie Man
TTITLE3=The Allman Brothers Band - Midnight Blues
TTITLE4=Spin Ine 2wo - On the Road Again
TTITLE5=Stevie Ray Vaughan - Texas Flood
TTITLE6=Johnny Winter - Drinkin' Blues
TTITLE7=Steve Stills and Al Kooper - Season of the Witch
TTITLE8=Fleetwood Mac - Coming Home
TTITLE9=The Favolous Thunderbird - Tuff Enuff
TTITLE10=Southside Johnny - Fanny Mae
TTITLE11=Taj Mahal - Satesboro Blues
TTITLE12=The Vaughan Brothers
EXTD=Yes, Blues
EXTT0=
EXTT1=
EXTT2=
EXTT3=
EXTT4=
EXTT5=
EXTT6=
EXTT7=
EXTT8=
EXTT9=
EXTT10=
EXTT11=
EXTT12=
PLAYORDER=
